<?xml version="1.0" encoding="UTF-8" standalone="no"?>
<!-- Created with Inkscape (http://www.inkscape.org/) -->

<svg
   xmlns:dc="http://purl.org/dc/elements/1.1/"
   xmlns:cc="http://creativecommons.org/ns#"
   xmlns:rdf="http://www.w3.org/1999/02/22-rdf-syntax-ns#"
   xmlns:svg="http://www.w3.org/2000/svg"
   xmlns="http://www.w3.org/2000/svg"
   xmlns:sodipodi="http://sodipodi.sourceforge.net/DTD/sodipodi-0.dtd"
   xmlns:inkscape="http://www.inkscape.org/namespaces/inkscape"
   id="svg4160"
   version="1.1"
   inkscape:version="0.91 r13725"
   width="2000"
   height="1485"
   viewBox="0 0 2000 1485"
   sodipodi:docname="1.svg">
  <metadata
     id="metadata4166">
    <rdf:RDF>
      <cc:Work
         rdf:about="">
        <dc:format>image/svg+xml</dc:format>
        <dc:type
           rdf:resource="http://purl.org/dc/dcmitype/StillImage" />
        <dc:title></dc:title>
      </cc:Work>
    </rdf:RDF>
  </metadata>
  <defs
     id="defs4164" />
  <sodipodi:namedview
     pagecolor="#ffffff"
     bordercolor="#666666"
     borderopacity="1"
     objecttolerance="10"
     gridtolerance="10"
     guidetolerance="10"
     inkscape:pageopacity="0"
     inkscape:pageshadow="2"
     inkscape:window-width="1366"
     inkscape:window-height="705"
     id="namedview4162"
     showgrid="false"
     inkscape:zoom="0.36094276"
     inkscape:cx="936.27799"
     inkscape:cy="742.5"
     inkscape:window-x="-8"
     inkscape:window-y="-8"
     inkscape:window-maximized="1"
     inkscape:current-layer="layer2" />
  <g
     inkscape:groupmode="layer"
     id="layer1"
     inkscape:label="Siahe dor"
     style="display:inline">
    <ellipse
       style="fill:#000000;fill-opacity:1;stroke:none;stroke-width:30;stroke-miterlimit:4;stroke-dasharray:none;stroke-opacity:1"
       id="path4178"
       cx="755.33337"
       cy="741.66669"
       rx="718.33337"
       ry="708.33337" />
  </g>
  <g
     inkscape:groupmode="layer"
     id="layer2"
     inkscape:label="2"
     style="display:inline">
    <ellipse
       style="fill:#f9f9f9;fill-opacity:1;stroke:none;stroke-width:30;stroke-miterlimit:4;stroke-dasharray:none;stroke-opacity:1"
       id="path4229"
       cx="738.45807"
       cy="740.34729"
       rx="541.66669"
       ry="543.34351"
       transform="matrix(1,0,0.00613485,0.99998118,0,0)" />
    <path
       style="fill:none;fill-rule:evenodd;stroke:#000000;stroke-width:1.83450258px;stroke-linecap:butt;stroke-linejoin:miter;stroke-opacity:1"
       d="m 648.55507,186.72864 c 59.8594,363.12619 119.7188,726.25233 179.57821,1089.37856"
       id="path6223"
       inkscape:connector-curvature="0" />
    <path
       style="display:inline;fill:none;fill-rule:evenodd;stroke:#000000;stroke-width:1.7970413px;stroke-linecap:butt;stroke-linejoin:miter;stroke-opacity:1"
       d="M 489.40855,256.83521 C 657.10694,582.45873 824.8053,908.08223 992.50375,1233.7059"
       id="path6223-9"
       inkscape:connector-curvature="0" />
    <path
       style="display:inline;fill:none;fill-rule:evenodd;stroke:#000000;stroke-width:1.88778555px;stroke-linecap:butt;stroke-linejoin:miter;stroke-opacity:1"
       d="m 340.57525,355.96891 c 271.53999,274.31051 543.07996,548.621 814.62005,822.93159"
       id="path6223-5"
       inkscape:connector-curvature="0" />
    <path
       style="display:inline;fill:none;fill-rule:evenodd;stroke:#000000;stroke-width:1.82927179px;stroke-linecap:butt;stroke-linejoin:miter;stroke-opacity:1"
       d="M 253.91495,503.43632 C 582.30309,675.7412 910.69123,848.04608 1239.0795,1020.351"
       id="path6223-1"
       inkscape:connector-curvature="0" />
    <path
       style="display:inline;fill:none;fill-rule:evenodd;stroke:#000000;stroke-width:1.85525703px;stroke-linecap:butt;stroke-linejoin:miter;stroke-opacity:1"
       d="M 199.04321,663.81333 C 559.39496,725.5062 919.74673,787.19904 1280.0986,848.89193"
       id="path6223-17"
       inkscape:connector-curvature="0" />
    <path
       style="display:inline;fill:none;fill-rule:evenodd;stroke:#000000;stroke-width:1.75707197px;stroke-linecap:butt;stroke-linejoin:miter;stroke-opacity:1"
       d="M 210.10909,835.10892 C 564.9306,778.91071 919.75213,722.71251 1274.5737,666.51427"
       id="path6223-0"
       inkscape:connector-curvature="0" />
    <path
       style="display:inline;fill:none;fill-rule:evenodd;stroke:#000000;stroke-width:1.79209936px;stroke-linecap:butt;stroke-linejoin:miter;stroke-opacity:1"
       d="M 253.90451,998.20627 C 579.52908,831.42949 905.15366,664.65272 1230.7783,497.87587"
       id="path6223-92"
       inkscape:connector-curvature="0" />
    <path
       style="display:inline;fill:none;fill-rule:evenodd;stroke:#000000;stroke-width:1.80171418px;stroke-linecap:butt;stroke-linejoin:miter;stroke-opacity:1"
       d="M 353.86384,1142.9142 C 614.34203,882.43599 874.82018,621.95783 1135.2985,361.47952"
       id="path6223-6"
       inkscape:connector-curvature="0" />
    <path
       style="display:inline;fill:none;fill-rule:evenodd;stroke:#000000;stroke-width:1.75707197px;stroke-linecap:butt;stroke-linejoin:miter;stroke-opacity:1"
       d="M 506.01264,1222.6337 C 669.10619,902.54464 832.1997,582.45555 995.29327,262.3663"
       id="path6223-96"
       inkscape:connector-curvature="0" />
    <path
       style="display:inline;fill:#000000;fill-rule:evenodd;stroke:#000000;stroke-width:1.81579041px;stroke-linecap:butt;stroke-linejoin:miter;stroke-opacity:1"
       d="M 839.22482,195.19336 C 780.2808,556.47426 721.33679,917.75509 662.39274,1279.0361"
       id="path6223-7"
       inkscape:connector-curvature="0" />
    <path
       style="fill:#000000;fill-opacity:1;fill-rule:nonzero;stroke:#d0eafa;stroke-width:8.31156731;stroke-miterlimit:4;stroke-dasharray:none;stroke-opacity:1"
       d="m 209.48335,824.09188 c -5.15609,-25.12193 -8.18833,-90.24096 -5.61041,-120.48664 1.52459,-17.8874 3.49838,-33.24894 4.38618,-34.13675 2.60187,-2.60186 477.08523,79.49272 479.3045,82.92873 1.24981,1.93501 -0.85936,3.92657 -5.54105,5.23208 -8.09361,2.25693 -461.17006,74.08152 -467.3134,74.08152 -2.01415,0 -4.36577,-3.42852 -5.22582,-7.61894 z"
       id="path6317"
       inkscape:connector-curvature="0" />
    <path
       style="fill:#000000;fill-opacity:1;fill-rule:nonzero;stroke:#d0eafa;stroke-width:8.31156731;stroke-miterlimit:4;stroke-dasharray:none;stroke-opacity:1"
       d="M 473.00972,616.10297 C 354.59113,554.11849 257.65748,502.19524 257.6016,500.71798 c -0.0559,-1.47727 7.52401,-16.0086 16.8442,-32.29186 16.87936,-29.48985 41.96559,-64.60191 63.09446,-88.31045 l 11.11082,-12.46735 172.60309,174.32757 c 108.13748,109.21789 172.25793,175.96016 171.67894,178.69871 -0.5083,2.40409 -1.75504,5.21628 -2.77052,6.24927 -1.01551,1.03299 -98.7343,-48.83641 -217.15287,-110.8209 z"
       id="path6319"
       inkscape:connector-curvature="0" />
    <path
       style="fill:#000000;fill-opacity:1;fill-rule:nonzero;stroke:#d0eafa;stroke-width:8.31156731;stroke-miterlimit:4;stroke-dasharray:none;stroke-opacity:1"
       d="M 605.82653,480.29621 C 545.51888,361.95974 495.77202,263.32714 495.27796,261.11265 c -1.90042,-8.51809 101.76902,-46.86085 144.578,-53.47303 l 9.7207,-1.50144 38.61658,234.51906 c 21.23912,128.98549 39.09946,237.69957 39.68964,241.58686 0.81567,5.37254 -0.5435,7.80437 -5.66651,10.13856 -6.69766,3.05168 -7.42131,1.73302 -116.38984,-212.08645 z"
       id="path6321"
       inkscape:connector-curvature="0" />
    <path
       style="fill:#000000;fill-opacity:1;fill-rule:nonzero;stroke:#d0eafa;stroke-width:8.31156731;stroke-miterlimit:4;stroke-dasharray:none;stroke-opacity:1"
       d="m 764.64435,693.32907 c -3.41905,-2.16297 1.80972,-38.28321 35.12467,-242.64054 21.52794,-132.0546 39.81174,-240.76929 40.63065,-241.5882 2.41827,-2.41827 58.77372,12.59989 87.41012,23.2939 28.17782,10.52276 63.87864,27.51078 63.87864,30.39626 0,3.20636 -219.81273,433.16526 -221.42999,433.12232 -0.87838,-0.0222 -3.40472,-1.18601 -5.61409,-2.58374 z"
       id="path6323"
       inkscape:connector-curvature="0" />
    <path
       style="fill:#000000;fill-opacity:1;fill-rule:nonzero;stroke:#d0eafa;stroke-width:8.31156731;stroke-miterlimit:4;stroke-dasharray:none;stroke-opacity:1"
       d="m 789.4403,714.64788 c 0,-1.90936 77.37723,-80.76535 171.94941,-175.23555 l 171.94939,-171.76401 11.0719,12.46735 c 19.9754,22.49305 45.7699,58.14824 63.035,87.13191 9.3315,15.66513 16.9663,29.15613 16.9663,29.98001 0,2.01218 -427.94818,220.89181 -431.88236,220.89181 -1.6993,0 -3.08964,-1.56218 -3.08964,-3.47152 z"
       id="path6329"
       inkscape:connector-curvature="0" />
    <path
       style="fill:#000000;fill-opacity:1;fill-rule:nonzero;stroke:#d0eafa;stroke-width:8.31156731;stroke-miterlimit:4;stroke-dasharray:none;stroke-opacity:1"
       d="m 1031.861,804.40615 -235.4944,-40.59089 0.95711,-9.68795 c 0.52641,-5.32837 1.14977,-9.81246 1.38526,-9.96465 4.10144,-2.65065 477.66013,-74.91083 479.42503,-73.15533 4.064,4.04221 5.543,103.89358 1.9494,131.61301 -4.8257,37.22368 -6.1153,42.9703 -9.5732,42.6599 -1.7351,-0.15576 -109.1273,-18.5491 -238.6492,-40.87409 z"
       id="path6355"
       inkscape:connector-curvature="0" />
    <path
       style="fill:#000000;fill-opacity:1;fill-rule:nonzero;stroke:#d0eafa;stroke-width:8.31156731;stroke-miterlimit:4;stroke-dasharray:none;stroke-opacity:1"
       d="M 944.77068,962.79194 C 797.07221,813.72156 775.9495,791.37433 779.44342,787.88041 c 3.49392,-3.49392 31.20169,10.24655 216.86836,107.54651 117.07442,61.35371 213.87512,112.46378 215.11262,113.57798 5.7011,5.1331 -85.2921,124.6929 -94.8997,124.6929 -1.3316,0 -78.6209,-76.9077 -171.75402,-170.90586 z"
       id="path6357"
       inkscape:connector-curvature="0" />
    <path
       style="fill:#000000;fill-opacity:1;fill-rule:nonzero;stroke:#d0eafa;stroke-width:8.31156731;stroke-miterlimit:4;stroke-dasharray:none;stroke-opacity:1"
       d="M 829.72394,1271.5312 C 826.15245,1260.29 753.2531,805.67531 754.50068,802.42417 c 5.44442,-14.18794 11.5185,-3.69229 121.23325,209.48373 l 109.84307,213.4253 -16.66243,8.4111 c -21.18673,10.6951 -75.16505,28.7866 -106.67752,35.7544 -28.91413,6.3932 -31.08455,6.5289 -32.51311,2.0325 z"
       id="path6359"
       inkscape:connector-curvature="0" />
    <path
       style="fill:#000000;fill-opacity:1;fill-rule:nonzero;stroke:#d0eafa;stroke-width:8.31156731;stroke-miterlimit:4;stroke-dasharray:none;stroke-opacity:1"
       d="m 628.75139,1269.2171 c -40.64427,-9.1654 -123.22446,-39.2148 -121.31409,-44.144 0.43724,-1.1281 49.41764,-97.5362 108.84535,-214.2401 96.2527,-189.02072 108.65538,-212.0099 113.59142,-210.54925 3.04757,0.90182 6.03931,2.08696 6.64831,2.63364 0.609,0.54669 -16.1666,106.98766 -37.27911,236.53551 -31.79881,195.1197 -39.12066,235.5014 -42.6651,235.3079 -2.3533,-0.1285 -14.87535,-2.6231 -27.82678,-5.5437 z"
       id="path6361"
       inkscape:connector-curvature="0" />
    <path
       style="fill:#ffffff;fill-opacity:1;fill-rule:nonzero;stroke:#d0eafa;stroke-width:8.31156731;stroke-miterlimit:4;stroke-dasharray:none;stroke-opacity:1"
       d="m 342.53641,1100.9672 c -24.88083,-28.001 -50.55668,-63.1039 -64.84399,-88.652 -8.02735,-14.35424 -9.17291,-18.17338 -6.04428,-20.15084 10.29887,-6.50942 420.86053,-215.86399 423.32718,-215.86399 1.56352,0 4.26929,2.66544 6.01278,5.9232 2.92836,5.47167 -9.6827,18.77719 -165.43272,174.54291 -92.73149,92.74082 -169.22991,168.60212 -169.99649,168.58072 -0.76658,-0.022 -11.12669,-10.9925 -23.02248,-24.38 z"
       id="path6363"
       inkscape:connector-curvature="0" />
    <path
       style="fill:#ffffff;fill-opacity:1;fill-rule:nonzero;stroke:#d0eafa;stroke-width:8.31156731;stroke-miterlimit:4;stroke-dasharray:none;stroke-opacity:1"
       d="M 251.2165,961.23274 C 231.81612,916.86925 209.42473,842.8458 214.01657,838.25395 c 0.95388,-0.95388 107.86135,-18.53832 237.57216,-39.07655 230.7189,-36.53171 249.79813,-38.81285 239.3595,-28.61809 -2.50134,2.44289 -423.98752,219.07129 -426.23924,219.07129 -0.59068,0 -6.6623,-12.77904 -13.49249,-28.39786 z"
       id="path6365"
       inkscape:connector-curvature="0" />
    <path
       style="fill:#ffffff;fill-opacity:1;fill-rule:nonzero;stroke:#d0eafa;stroke-width:8.31156731;stroke-miterlimit:4;stroke-dasharray:none;stroke-opacity:1"
       d="M 447.86252,704.1215 C 317.13677,681.73055 209.59011,662.82145 208.86995,662.10129 c -1.80095,-1.80095 5.4474,-38.70375 13.67031,-69.59829 7.57866,-28.47403 29.01912,-84.9433 32.25158,-84.9433 2.49781,0 429.98727,224.09551 432.5172,226.73112 0.96982,1.01034 0.96982,3.7955 0,6.18924 -1.53911,3.79885 -31.98643,-0.8244 -239.44652,-36.35856 z"
       id="path6367"
       inkscape:connector-curvature="0" />
    <path
       style="fill:#ffffff;fill-opacity:1;fill-rule:nonzero;stroke:#d0eafa;stroke-width:8.31156731;stroke-miterlimit:4;stroke-dasharray:none;stroke-opacity:1"
       d="m 524.19039,538.21517 -172.43742,-174.19894 21.98191,-20.679 c 12.09005,-11.37345 31.68906,-27.98482 43.55336,-36.91415 21.67835,-16.3156 69.92373,-46.61846 71.56366,-44.94904 0.48324,0.49194 26.70798,51.3872 58.27721,113.10059 78.49491,153.44647 151.69189,295.42385 159.57987,309.53093 l 6.54195,11.69978 -8.31156,8.30439 -8.31157,8.30442 -172.43741,-174.19898 z"
       id="path6369"
       inkscape:connector-curvature="0" />
    <path
       style="fill:#ffffff;fill-opacity:1;fill-rule:nonzero;stroke:#d0eafa;stroke-width:8.31156731;stroke-miterlimit:4;stroke-dasharray:none;stroke-opacity:1"
       d="m 733.95667,689.02892 c -0.0499,0 -18.01075,-108.46595 -39.91295,-241.03545 -27.2865,-165.1595 -38.87772,-241.61992 -36.82186,-242.89213 5.18406,-3.20805 54.52097,-6.31488 92.61276,-5.832 32.38178,0.4105 80.70705,4.92345 83.58979,7.80619 0.5776,0.5776 -0.32537,10.13797 -2.00661,21.24526 -4.46607,29.5057 -72.27793,445.59221 -73.97671,453.91342 -1.25829,6.16353 -2.83183,7.04123 -12.41727,6.92631 -6.03702,-0.0723 -11.01724,-0.1316 -11.06715,-0.1316 z"
       id="path6371"
       inkscape:connector-curvature="0" />
    <path
       style="fill:#ffffff;fill-opacity:1;fill-rule:nonzero;stroke:#d0eafa;stroke-width:8.31156731;stroke-miterlimit:4;stroke-dasharray:none;stroke-opacity:1"
       d="m 780.23664,702.99532 c -4.72116,-3.54179 2.06678,-17.74434 104.87706,-219.43634 60.45871,-118.60721 110.73629,-216.52892 111.72796,-217.6038 4.62174,-5.00961 76.32054,45.09663 111.20874,77.71743 l 20.7789,19.42853 -171.7724,171.84051 C 800.11106,691.94974 784.84881,706.45531 780.23664,702.99532 Z"
       id="path6373"
       inkscape:connector-curvature="0" />
    <path
       style="fill:#ffffff;fill-opacity:1;fill-rule:nonzero;stroke:#d0eafa;stroke-width:8.31156731;stroke-miterlimit:4;stroke-dasharray:none;stroke-opacity:1"
       d="m 796.55506,733.12178 c -1.03424,-4.12076 -0.87638,-8.42592 0.35081,-9.56702 1.22719,-1.1411 83.26904,-43.48412 182.31521,-94.09561 99.04622,-50.61149 195.36822,-100.06612 214.04912,-109.89919 l 33.9651,-17.8783 5.8028,13.32848 c 19.9927,45.92156 37.4858,102.32579 42.3702,136.61766 l 1.776,12.46829 -236.2531,37.129 c -129.93915,20.42095 -237.65763,37.6375 -239.37436,38.25899 -1.71673,0.6215 -3.96753,-2.24154 -5.00178,-6.3623 z"
       id="path6375"
       inkscape:connector-curvature="0" />
    <path
       style="fill:#ffffff;fill-opacity:1;fill-rule:nonzero;stroke:#d0eafa;stroke-width:8.31156731;stroke-miterlimit:4;stroke-dasharray:none;stroke-opacity:1"
       d="M 1185.625,989.95411 C 1169.6252,981.35848 1073.4601,930.75687 971.92466,877.50608 790.47012,782.3413 787.36594,780.57422 790.30726,774.11874 c 2.32137,-5.09485 4.57899,-6.26047 10.06695,-5.19761 3.89096,0.75358 111.17686,19.14901 238.41309,40.87875 127.2363,21.72974 231.8744,39.92903 232.5293,40.44287 2.1024,1.64969 -8.5549,42.94484 -18.455,71.51005 -8.794,25.37361 -35.1721,84.957 -37.2607,84.1653 -0.487,-0.1845 -13.9761,-7.36835 -29.9759,-15.96399 z"
       id="path6377"
       inkscape:connector-curvature="0" />
    <path
       style="fill:#ffffff;fill-opacity:1;fill-rule:nonzero;stroke:#d0eafa;stroke-width:8.31156731;stroke-miterlimit:4;stroke-dasharray:none;stroke-opacity:1"
       d="m 985.31935,1214.9601 c -2.1852,-4.3139 -50.19546,-97.6271 -106.68947,-207.3626 -56.494,-109.73552 -103.57713,-201.99392 -104.62917,-205.01867 -2.25693,-6.48897 104.24137,98.78578 240.21669,237.45687 l 96.9668,98.8893 -11.6373,10.5463 c -25.7422,23.3291 -86.2412,64.3448 -105.59331,71.5877 -3.29836,1.2345 -5.82276,-0.5486 -8.63424,-6.0989 z"
       id="path6379"
       inkscape:connector-curvature="0" />
    <path
       style="fill:#ffffff;fill-opacity:1;fill-rule:nonzero;stroke:#d0eafa;stroke-width:8.31156731;stroke-miterlimit:4;stroke-dasharray:none;stroke-opacity:1"
       d="m 699.45366,1280.065 c -16.73122,-1.3565 -31.24185,-3.3641 -32.24583,-4.4611 -1.82607,-1.9955 73.98461,-471.37283 76.54678,-473.935 0.74653,-0.74653 1.99003,-0.72463 2.76333,0.0487 1.75253,1.75253 79.41919,473.7203 78.16195,474.9775 -1.36093,1.361 -73.87425,6.6578 -85.10899,6.2169 -5.33326,-0.2092 -23.38601,-1.4904 -40.11724,-2.847 z"
       id="path6381"
       inkscape:connector-curvature="0" />
    <path
       style="fill:#ffffff;fill-opacity:1;fill-rule:nonzero;stroke:#d0eafa;stroke-width:8.31156731;stroke-miterlimit:4;stroke-dasharray:none;stroke-opacity:1"
       d="m 472.25836,1207.079 c -32.97695,-19.6167 -74.57707,-50.3371 -90.72394,-66.9968 L 371.1985,1129.418 540.83945,959.9155 c 151.2898,-151.16633 170.1598,-169.11303 174.43729,-165.90203 4.39255,3.2974 0.0457,12.90677 -51.63844,114.15405 -31.03909,60.80446 -80.03469,156.95698 -108.87911,213.67218 l -52.44441,103.1187 -30.05642,-17.8794 z"
       id="path6383"
       inkscape:connector-curvature="0" />
    <path
       style="fill:#000000;fill-opacity:1;fill-rule:nonzero;stroke:none;stroke-width:8.31156731;stroke-miterlimit:4;stroke-dasharray:none;stroke-opacity:1"
       d="m 342.49527,1093.9884 c -25.94671,-30.7328 -52.73761,-67.8537 -61.68795,-85.4735 l -6.59178,-12.9767 58.8274,-30.34397 C 503.4484,877.29677 693.18371,781.6296 694.49779,782.94368 c 0.82243,0.82244 -0.60034,4.69374 -3.16174,8.60291 -5.92673,9.04534 -259.27913,264.52171 -298.19405,300.69401 l -29.20408,27.1458 -21.44265,-25.398 z"
       id="path6385"
       inkscape:connector-curvature="0" />
    <ellipse
       style="fill:none;fill-opacity:1;fill-rule:nonzero;stroke:#000000;stroke-width:3.148947;stroke-miterlimit:4;stroke-dasharray:none;stroke-opacity:1"
       id="path6387"
       cx="753.42633"
       cy="743.74634"
       rx="372.56079"
       ry="343.47031" />
    <ellipse
       style="fill:none;fill-opacity:1;fill-rule:nonzero;stroke:#000000;stroke-width:4.02585268;stroke-miterlimit:4;stroke-dasharray:none;stroke-opacity:1"
       id="path6389"
       cx="755.63251"
       cy="741.11475"
       rx="354.11395"
       ry="322.25293" />
    <path
       style="fill:#00ff00;fill-opacity:1;fill-rule:nonzero;stroke:#000000;stroke-width:8.31156731;stroke-miterlimit:4;stroke-dasharray:none;stroke-opacity:1"
       d="m 692.47201,413.88811 c 0,-4.42737 2.15001,-6.15069 9.0042,-7.21725 22.21057,-3.45614 53.24882,-4.65828 73.85736,-2.86057 19.35867,1.68868 22.4183,2.66298 22.4183,7.13887 0,4.7809 -2.63485,5.18483 -33.9389,5.203 -18.6664,0.0108 -42.35436,0.81448 -52.63993,1.78589 -17.70974,1.67258 -18.70103,1.4579 -18.70103,-4.04994 z"
       id="path6393"
       inkscape:connector-curvature="0" />
    <path
       style="fill:#00ff00;fill-opacity:1;fill-rule:nonzero;stroke:#000000;stroke-width:8.31156731;stroke-miterlimit:4;stroke-dasharray:none;stroke-opacity:1"
       d=""
       id="path6395"
       inkscape:connector-curvature="0" />
    <path
       style="fill:#00ff00;fill-opacity:1;fill-rule:nonzero;stroke:#000000;stroke-width:8.31156731;stroke-miterlimit:4;stroke-dasharray:none;stroke-opacity:1"
       d=""
       id="path6397"
       inkscape:connector-curvature="0" />
    <path
       style="fill:#00ff00;fill-opacity:1;fill-rule:nonzero;stroke:#000000;stroke-width:8.31156731;stroke-miterlimit:4;stroke-dasharray:none;stroke-opacity:1"
       d="m 976.45056,485.18509 c -7.61894,-5.87372 -25.94954,-17.00751 -40.73467,-24.74176 -19.31365,-10.10318 -26.44534,-15.20033 -25.33091,-18.10449 0.85312,-2.22321 2.70593,-4.0422 4.11734,-4.0422 7.75509,0 69.07934,36.6103 78.19317,46.68097 3.72912,4.12063 3.95968,5.74278 1.14073,8.02571 -2.58488,2.09337 -7.25069,-0.005 -17.38566,-7.81823 z"
       id="path6399"
       inkscape:connector-curvature="0" />
    <path
       style="fill:#00ff00;fill-opacity:1;fill-rule:nonzero;stroke:#000000;stroke-width:8.31156731;stroke-miterlimit:4;stroke-dasharray:none;stroke-opacity:1"
       d=""
       id="path6401"
       inkscape:connector-curvature="0" />
    <path
       style="fill:#00ff00;fill-opacity:1;fill-rule:nonzero;stroke:#000000;stroke-width:8.31156731;stroke-miterlimit:4;stroke-dasharray:none;stroke-opacity:1"
       d="m 1105.2917,673.09841 c -5.1659,-20.46523 -16.9853,-52.74129 -25.5046,-69.64757 -6.3448,-12.59078 -7.4083,-16.81759 -4.6591,-18.51668 4.257,-2.63097 9.4806,5.28599 21.3879,32.41581 7.9558,18.12647 19.846,56.47309 19.846,64.00433 0,1.93536 -1.822,3.51883 -4.049,3.51883 -2.4502,0 -5.2225,-4.64916 -7.0212,-11.77472 z"
       id="path6403"
       inkscape:connector-curvature="0" />
    <path
       style="fill:#00ff00;fill-opacity:1;fill-rule:nonzero;stroke:#000000;stroke-width:8.31156731;stroke-miterlimit:4;stroke-dasharray:none;stroke-opacity:1"
       d=""
       id="path6405"
       inkscape:connector-curvature="0" />
    <path
       style="fill:#00ff00;fill-opacity:1;fill-rule:nonzero;stroke:#000000;stroke-width:8.31156731;stroke-miterlimit:4;stroke-dasharray:none;stroke-opacity:1"
       d="m 1062.4002,919.37127 c -4.9916,-3.64992 -4.9687,-4.02216 0.7397,-12.03883 7.7371,-10.86577 30.3954,-57.52989 34.3607,-70.76484 2.1954,-7.32756 4.687,-10.39782 8.4379,-10.39782 4.5175,0 5.0356,1.30677 3.4253,8.63844 -2.8456,12.95596 -16.8419,45.70716 -27.6247,64.64144 -14.3417,25.18365 -13.4288,24.2432 -19.3389,19.92161 z"
       id="path6407"
       inkscape:connector-curvature="0" />
    <path
       style="fill:#00ff00;fill-opacity:1;fill-rule:nonzero;stroke:#000000;stroke-width:8.31156731;stroke-miterlimit:4;stroke-dasharray:none;stroke-opacity:1"
       d="m 903.55875,1046.4766 c -3.04803,-6.6897 -2.44264,-7.222 22.34459,-19.6501 14.01262,-7.0258 28.81717,-15.1522 32.899,-18.0587 9.07433,-6.4615 10.32174,-6.5055 16.85293,-0.5949 4.98891,4.5149 4.63562,5.0389 -9.47868,14.0582 -13.0039,8.3098 -55.87126,31.1215 -58.48288,31.1215 -0.55113,0 -2.41186,-3.0942 -4.13496,-6.876 z"
       id="path6409"
       inkscape:connector-curvature="0" />
    <path
       style="fill:#00ff00;fill-opacity:1;fill-rule:nonzero;stroke:#000000;stroke-width:8.31156731;stroke-miterlimit:4;stroke-dasharray:none;stroke-opacity:1"
       d="m 708.90228,1081.8922 c -6.07983,-0.9445 -6.94912,-2.2646 -5.95438,-9.0421 l 1.16478,-7.9362 41.2611,0.453 c 25.31501,0.278 41.28246,1.5238 41.31638,3.2236 0.0304,1.5238 0.80703,5.5757 1.72584,9.0042 l 1.67056,6.2337 -37.03255,-0.4152 c -20.36791,-0.2283 -40.23618,-0.9127 -44.15173,-1.521 z"
       id="path6411"
       inkscape:connector-curvature="0" />
    <path
       style="fill:#00ff00;fill-opacity:1;fill-rule:nonzero;stroke:#000000;stroke-width:8.31156731;stroke-miterlimit:4;stroke-dasharray:none;stroke-opacity:1"
       d="m 565.44935,1036.6369 c -22.56648,-12.3008 -55.83181,-35.2447 -55.83181,-38.50853 0,-1.15386 2.26565,-4.14832 5.03478,-6.65435 4.7323,-4.28268 6.61011,-3.51785 31.25593,12.73058 14.42164,9.5079 31.42694,19.634 37.78957,22.5026 11.53686,5.2015 11.5572,5.2373 7.46023,13.16 -2.2595,4.3694 -4.38785,7.9268 -4.72966,7.9054 -0.34182,-0.021 -9.78239,-5.0325 -20.97904,-11.1357 z"
       id="path6413"
       inkscape:connector-curvature="0" />
    <path
       style="fill:#00ff00;fill-opacity:1;fill-rule:nonzero;stroke:#000000;stroke-width:8.31156731;stroke-miterlimit:4;stroke-dasharray:none;stroke-opacity:1"
       d="m 415.97957,882.27285 c -11.09964,-24.21524 -13.94507,-31.68389 -20.0549,-52.63992 l -5.04849,-17.31577 7.84616,0 c 7.27582,0 8.26111,1.35939 13.55449,18.70103 3.13958,10.28556 10.68894,28.97081 16.77637,41.52277 10.49042,21.63074 10.79445,22.96816 5.82575,25.62733 -8.68084,4.64585 -9.98755,3.54683 -18.89938,-15.89544 z"
       id="path6415"
       inkscape:connector-curvature="0" />
    <path
       style="fill:#00ff00;fill-opacity:1;fill-rule:nonzero;stroke:#000000;stroke-width:8.31156731;stroke-miterlimit:4;stroke-dasharray:none;stroke-opacity:1"
       d="m 389.38164,682.98905 c 8.77682,-36.67012 26.3277,-84.06744 31.08965,-83.95969 1.03113,0.0233 3.58054,1.12302 5.66534,2.44375 3.08622,1.95512 2.12958,6.70835 -5.1484,25.5808 -4.91643,12.74871 -11.14764,31.90847 -13.84714,42.57724 -4.4124,17.43834 -5.65171,19.48731 -12.26879,20.28421 -6.79151,0.81791 -7.21603,0.28239 -5.49066,-6.92631 z"
       id="path6417"
       inkscape:connector-curvature="0" />
    <path
       style="fill:#00ff00;fill-opacity:1;fill-rule:nonzero;stroke:#000000;stroke-width:8.31156731;stroke-miterlimit:4;stroke-dasharray:none;stroke-opacity:1"
       d="m 498.28201,505.86907 c -3.33514,-4.0186 -2.45537,-5.74598 7.23241,-14.20048 13.67313,-11.93251 36.5553,-27.63719 57.20615,-39.2622 l 15.70098,-8.83857 1.98242,6.24606 c 1.17826,3.71238 0.77302,6.6492 -0.99902,7.23988 -4.20759,1.40253 -58.32863,37.93549 -68.70825,46.37967 -7.91138,6.43617 -8.92887,6.63579 -12.41469,2.43564 z"
       id="path6419"
       inkscape:connector-curvature="0" />
  </g>
  <g
     inkscape:groupmode="layer"
     id="layer3"
     inkscape:label="3"
     style="display:inline">
    <ellipse
       style="fill:#00a000;fill-opacity:1;fill-rule:nonzero;stroke:#d0eafa;stroke-width:3;stroke-miterlimit:4;stroke-dasharray:none;stroke-opacity:1"
       id="path4774"
       cx="742.91974"
       cy="745.10321"
       rx="53.728237"
       ry="55.074627" />
    <ellipse
       style="fill:#ff0000;fill-opacity:1;fill-rule:nonzero;stroke:#d0edfd;stroke-width:3;stroke-miterlimit:4;stroke-dasharray:none;stroke-opacity:1"
       id="path6212"
       cx="742.44592"
       cy="744.94965"
       rx="20.393265"
       ry="21.027592" />
  </g>
  <g
     inkscape:groupmode="layer"
     id="layer4"
     inkscape:label="4" />
</svg>
